<svg id="Layer_1" data-name="Layer 1" xmlns="http://www.w3.org/2000/svg" viewBox="0 0 539 348"><defs><style>.cls-1{fill:#287177;}.cls-2{fill:#59af9a;}</style></defs><path d="M111,315c-29,0-51.88-27.52-57.31-54.11-5.66-27.76,5.13-58.93,26.85-77.58,16.95-14.55,39.83-23.66,64.43-25.65,19.51-1.58,41.37-2.32,68.78-2.32,26,0,47.93-9,65.06-26.89,25.48-26.55,35.86-68.65,34.71-96.54a2,2,0,0,0-.93-1.64,2,2,0,0,0-1.88-.19,2,2,0,0,0-1.23,1.36C304.57,52.06,296.36,69.53,285,83.36c-14.18,17.32-33.72,28.72-53.62,31.29-22.18,2.85-45-5.89-58.08-22.31-12.51-15.65-11.66-41.17,2-59.36l4-5.35,14.76,16.15c1-.48,2.09-1,3.22-1.56a26.58,26.58,0,0,1,20.92-1.12,28.19,28.19,0,0,1,16,15.06,3.94,3.94,0,0,0,.46.85c1.59,1.5,5.42,2.61,9.27,2.62h3l1.63,2.55a27.78,27.78,0,0,1-2.8,33.28,5.53,5.53,0,0,1-8.14-7.5,17.11,17.11,0,0,0,2.84-17.46C235,69.91,230.09,67.93,227,65a13.21,13.21,0,0,1-2.89-4.32,17.06,17.06,0,0,0-9.66-9.14,15.57,15.57,0,0,0-12.26.66c-2.73,1.34-5.18,2.52-7.38,3.43l-3.58,1.46L180.56,45.4c-6.31,12.28-7.47,28.91,1.41,40,10.75,13.45,29.6,20.61,48,18.23,17.12-2.21,34.06-12.17,46.47-27.33,10.25-12.51,17.72-28.48,22.2-47.46a13.13,13.13,0,0,1,25.88,2.56c1.24,30.15-10.06,75.76-37.79,104.66-19.29,20.1-43.87,30.29-73,30.29-27.11,0-48.68.72-67.89,2.28-22.29,1.81-42.92,10-58.11,23-18.48,15.87-28,43.41-23.22,67C69,280.42,88,303.91,111,303.91A5.54,5.54,0,0,1,111,315"/><path d="M215.48,67.37a5.16,5.16,0,1,0-5.16,5.16,5.16,5.16,0,0,0,5.16-5.16"/><path d="M177,333.79H112.28c-22.47,0-45.61,0-60.89-12.83C-9.7,269.59,36,197.89,53.21,170.9c1.72-2.7,3.21-5,4.28-6.84C69,144.63,81.12,121.57,84.23,97.81c2.52-19.18-4-30.37-9.87-36.37a32,32,0,0,0-26.1-9.67,5.53,5.53,0,1,1-1.23-11A43.15,43.15,0,0,1,82.26,53.69C93,64.66,97.62,80.84,95.2,99.25,91.83,125,79.07,149.3,67,169.68c-1.17,2-2.7,4.38-4.47,7.17-17.27,27.08-57.7,90.51-4,135.62,12.19,10.25,33.32,10.25,53.76,10.24h54.22a23.18,23.18,0,0,0-18.77-9l-8.15.13h-.09a5.53,5.53,0,0,1-2.11-10.65c15.68-6.44,27.5-20.1,30.85-35.64,3.45-16-2.86-33.57-15.34-42.76-12.8-9.43-32-9.2-43.65.52a5.54,5.54,0,0,1-7.08-8.51c15.67-13,40.3-13.44,57.29-.92,16.13,11.87,24,33.58,19.6,54A60.84,60.84,0,0,1,157.56,304a34.3,34.3,0,0,1,19.09,13.89l4.9,7.28a5.53,5.53,0,0,1-4.59,8.62"/><path d="M202.51,329.06l.08-5.63c.36-22.73,1.29-83.09-19.27-107.68-24.81-29.68-63.87-22.68-82.47-8.61a5.53,5.53,0,0,1-6.68-8.82c37.6-28.46,79.73-11.09,97.64,10.33,21.67,25.91,22.28,80.9,21.93,109.31l27-.07a12.06,12.06,0,0,0-11-6.7l-5.18.14-.64-5a415.15,415.15,0,0,1-.67-97.47c1.07-9.89,2.93-22.71,7.83-34.13a5.53,5.53,0,1,1,10.17,4.36c-4.33,10.07-6,21.83-7,31a406.19,406.19,0,0,0,.1,90.44A23.36,23.36,0,0,1,253.07,322l.4,7Z"/><path d="M459.75,187.1h-.13a11.56,11.56,0,0,0,0,23.12h.13a11.56,11.56,0,0,0,0-23.12Zm-.06,21.3a9.74,9.74,0,1,1,9.67-9.74A9.75,9.75,0,0,1,459.69,208.4Z"/><path d="M464.53,196.92a4.48,4.48,0,0,0-4.43-4.48h0a4.48,4.48,0,0,0-4.44,4.48v7.5h1.83v-7.5a2.63,2.63,0,1,1,2.61,2.65h-1.93l4.45,5.43,1.42-1.16-2.28-2.77A4.47,4.47,0,0,0,464.53,196.92Z"/><path d="M342.47,203.94h-.23a23.25,23.25,0,0,0-23,23.22v34.43a4.32,4.32,0,0,0,8.64,0V245.21a23.07,23.07,0,0,0,14.35,5.18h.23a23.23,23.23,0,0,0,0-46.45Zm-.12,37.8a14.58,14.58,0,1,1,14.47-14.58A14.59,14.59,0,0,1,342.35,241.74Z"/><path d="M420.78,282.26a23.24,23.24,0,0,0-23.22,23v.23h0a23.23,23.23,0,0,0,46.45,0v-.23h0A23.26,23.26,0,0,0,420.78,282.26Zm0,37.57a14.47,14.47,0,1,1,14.58-14.46A14.6,14.6,0,0,1,420.78,319.83Z"/><path d="M446.62,231.42H434v-7.79a4.33,4.33,0,1,0-8.65,0v38a4.33,4.33,0,0,0,8.65,0V240.07h12.67a4.33,4.33,0,1,0,0-8.65Z"/><path d="M387.94,284.4H374.59V276a4.33,4.33,0,1,0-8.65,0v47.7a4.33,4.33,0,0,0,8.65,0V293.05h13.35a4.33,4.33,0,0,0,0-8.65Z"/><path d="M352.78,278.66l-3.72-2.93c-6.83-5.39-17.31-5.43-23.87-.11a16.52,16.52,0,0,0-4.86,6.41,14.65,14.65,0,0,0,.29,12.07,17.87,17.87,0,0,0,10.57,9c.12.05.23.11.35.15l5.62,1.66a9.37,9.37,0,0,1,5.95,4.67,6,6,0,0,1,.13,5,5.24,5.24,0,0,1-.23.48,8.34,8.34,0,0,1-6.07,4.06,11.29,11.29,0,0,1-9.4-2.27l-4.66-4.08a4.32,4.32,0,1,0-5.69,6.51l4.65,4.08A19.44,19.44,0,0,0,334.61,328a21.24,21.24,0,0,0,4-.38A16.9,16.9,0,0,0,350.71,319c.18-.35.35-.71.5-1.08a14.65,14.65,0,0,0-.29-12.07,17.87,17.87,0,0,0-10.57-9c-.12-.05-.23-.11-.35-.15l-5.62-1.66a9.39,9.39,0,0,1-5.95-4.67,6.05,6.05,0,0,1-.13-5,7.81,7.81,0,0,1,2.33-3c3.43-2.79,9.42-2.7,13.07.18l3.73,2.93a4.32,4.32,0,0,0,5.35-6.79Z"/><path d="M481.23,272.47a4.33,4.33,0,0,0-6.11-.27l-8.1,7.42a35,35,0,0,0-11.33,25.75v18.3a4.32,4.32,0,1,0,8.64,0v-18.3A26.32,26.32,0,0,1,472.86,286l8.1-7.42A4.33,4.33,0,0,0,481.23,272.47Z"/><path d="M407.74,256.32a4.33,4.33,0,0,0-5.93-1.48A14.42,14.42,0,1,1,404,231.5L390.17,239a4.32,4.32,0,1,0,4.11,7.61l22.39-12.09-2.32-3.88a23.22,23.22,0,0,0-40,23.68h0l.09.14,0,.06h0a23.12,23.12,0,0,0,14.16,10.39,23.43,23.43,0,0,0,5.68.7,23.06,23.06,0,0,0,11.9-3.31A4.33,4.33,0,0,0,407.74,256.32Z"/><path d="M510.83,317.77A14.47,14.47,0,1,1,496,293a14.63,14.63,0,0,1,17,1.48l-13.8,7.44a4.32,4.32,0,0,0,4.11,7.61l22.4-12.09-2.33-3.88a23.23,23.23,0,0,0-40,23.69h0l.11.18v0h0a23.08,23.08,0,0,0,14.16,10.39,23.43,23.43,0,0,0,5.68.7,23.12,23.12,0,0,0,11.91-3.31,4.33,4.33,0,0,0-4.45-7.42Z"/><path class="cls-1" d="M111,315c-29,0-51.88-27.52-57.31-54.11-5.66-27.76,5.13-58.93,26.85-77.58,16.95-14.55,39.83-23.66,64.43-25.65,19.51-1.58,41.37-2.32,68.78-2.32,26,0,47.93-9,65.06-26.89,25.48-26.55,35.86-68.65,34.71-96.54a2,2,0,0,0-.93-1.64,2,2,0,0,0-1.88-.19,2,2,0,0,0-1.23,1.36C304.57,52.06,296.36,69.53,285,83.36c-14.18,17.32-33.72,28.72-53.62,31.29-22.18,2.85-45-5.89-58.08-22.31-12.51-15.65-11.66-41.17,2-59.36l4-5.35,14.76,16.15c1-.48,2.09-1,3.22-1.56a26.58,26.58,0,0,1,20.92-1.12,28.19,28.19,0,0,1,16,15.06,3.94,3.94,0,0,0,.46.85c1.59,1.5,5.42,2.61,9.27,2.62h3l1.63,2.55a27.78,27.78,0,0,1-2.8,33.28,5.53,5.53,0,0,1-8.14-7.5,17.11,17.11,0,0,0,2.84-17.46C235,69.91,230.09,67.93,227,65a13.21,13.21,0,0,1-2.89-4.32,17.06,17.06,0,0,0-9.66-9.14,15.57,15.57,0,0,0-12.26.66c-2.73,1.34-5.18,2.52-7.38,3.43l-3.58,1.46L180.56,45.4c-6.31,12.28-7.47,28.91,1.41,40,10.75,13.45,29.6,20.61,48,18.23,17.12-2.21,34.06-12.17,46.47-27.33,10.25-12.51,17.72-28.48,22.2-47.46a13.13,13.13,0,0,1,25.88,2.56c1.24,30.15-10.06,75.76-37.79,104.66-19.29,20.1-43.87,30.29-73,30.29-27.11,0-48.68.72-67.89,2.28-22.29,1.81-42.92,10-58.11,23-18.48,15.87-28,43.41-23.22,67C69,280.42,88,303.91,111,303.91A5.54,5.54,0,0,1,111,315"/><path class="cls-1" d="M215.48,67.37a5.16,5.16,0,1,0-5.16,5.16,5.16,5.16,0,0,0,5.16-5.16"/><path class="cls-1" d="M177,333.79H112.28c-22.47,0-45.61,0-60.89-12.83C-9.7,269.59,36,197.89,53.21,170.9c1.72-2.7,3.21-5,4.28-6.84C69,144.63,81.12,121.57,84.23,97.81c2.52-19.18-4-30.37-9.87-36.37a32,32,0,0,0-26.1-9.67,5.53,5.53,0,1,1-1.23-11A43.15,43.15,0,0,1,82.26,53.69C93,64.66,97.62,80.84,95.2,99.25,91.83,125,79.07,149.3,67,169.68c-1.17,2-2.7,4.38-4.47,7.17-17.27,27.08-57.7,90.51-4,135.62,12.19,10.25,33.32,10.25,53.76,10.24h54.22a23.18,23.18,0,0,0-18.77-9l-8.15.13h-.09a5.53,5.53,0,0,1-2.11-10.65c15.68-6.44,27.5-20.1,30.85-35.64,3.45-16-2.86-33.57-15.34-42.76-12.8-9.43-32-9.2-43.65.52a5.54,5.54,0,0,1-7.08-8.51c15.67-13,40.3-13.44,57.29-.92,16.13,11.87,24,33.58,19.6,54A60.84,60.84,0,0,1,157.56,304a34.3,34.3,0,0,1,19.09,13.89l4.9,7.28a5.53,5.53,0,0,1-4.59,8.62"/><path class="cls-1" d="M202.51,329.06l.08-5.63c.36-22.73,1.29-83.09-19.27-107.68-24.81-29.68-63.87-22.68-82.47-8.61a5.53,5.53,0,0,1-6.68-8.82c37.6-28.46,79.73-11.09,97.64,10.33,21.67,25.91,22.28,80.9,21.93,109.31l27-.07a12.06,12.06,0,0,0-11-6.7l-5.18.14-.64-5a415.15,415.15,0,0,1-.67-97.47c1.07-9.89,2.93-22.71,7.83-34.13a5.53,5.53,0,1,1,10.17,4.36c-4.33,10.07-6,21.83-7,31a406.19,406.19,0,0,0,.1,90.44A23.36,23.36,0,0,1,253.07,322l.4,7Z"/><path class="cls-2" d="M459.75,187.1h-.13a11.56,11.56,0,0,0,0,23.12h.13a11.56,11.56,0,0,0,0-23.12Zm-.06,21.3a9.74,9.74,0,1,1,9.67-9.74A9.75,9.75,0,0,1,459.69,208.4Z"/><path class="cls-2" d="M464.53,196.92a4.48,4.48,0,0,0-4.43-4.48h0a4.48,4.48,0,0,0-4.44,4.48v7.5h1.83v-7.5a2.63,2.63,0,1,1,2.61,2.65h-1.93l4.45,5.43,1.42-1.16-2.28-2.77A4.47,4.47,0,0,0,464.53,196.92Z"/><path class="cls-2" d="M342.47,203.94h-.23a23.25,23.25,0,0,0-23,23.22v34.43a4.32,4.32,0,0,0,8.64,0V245.21a23.07,23.07,0,0,0,14.35,5.18h.23a23.23,23.23,0,0,0,0-46.45Zm-.12,37.8a14.58,14.58,0,1,1,14.47-14.58A14.59,14.59,0,0,1,342.35,241.74Z"/><path class="cls-2" d="M420.78,282.26a23.24,23.24,0,0,0-23.22,23v.23h0a23.23,23.23,0,0,0,46.45,0v-.23h0A23.26,23.26,0,0,0,420.78,282.26Zm0,37.57a14.47,14.47,0,1,1,14.58-14.46A14.6,14.6,0,0,1,420.78,319.83Z"/><path class="cls-2" d="M446.62,231.42H434v-7.79a4.33,4.33,0,1,0-8.65,0v38a4.33,4.33,0,0,0,8.65,0V240.07h12.67a4.33,4.33,0,1,0,0-8.65Z"/><path class="cls-2" d="M387.94,284.4H374.59V276a4.33,4.33,0,1,0-8.65,0v47.7a4.33,4.33,0,0,0,8.65,0V293.05h13.35a4.33,4.33,0,0,0,0-8.65Z"/><path class="cls-2" d="M352.78,278.66l-3.72-2.93c-6.83-5.39-17.31-5.43-23.87-.11a16.52,16.52,0,0,0-4.86,6.41,14.65,14.65,0,0,0,.29,12.07,17.87,17.87,0,0,0,10.57,9c.12.05.23.11.35.15l5.62,1.66a9.37,9.37,0,0,1,5.95,4.67,6,6,0,0,1,.13,5,5.24,5.24,0,0,1-.23.48,8.34,8.34,0,0,1-6.07,4.06,11.29,11.29,0,0,1-9.4-2.27l-4.66-4.08a4.32,4.32,0,1,0-5.69,6.51l4.65,4.08A19.44,19.44,0,0,0,334.61,328a21.24,21.24,0,0,0,4-.38A16.9,16.9,0,0,0,350.71,319c.18-.35.35-.71.5-1.08a14.65,14.65,0,0,0-.29-12.07,17.87,17.87,0,0,0-10.57-9c-.12-.05-.23-.11-.35-.15l-5.62-1.66a9.39,9.39,0,0,1-5.95-4.67,6.05,6.05,0,0,1-.13-5,7.81,7.81,0,0,1,2.33-3c3.43-2.79,9.42-2.7,13.07.18l3.73,2.93a4.32,4.32,0,0,0,5.35-6.79Z"/><path class="cls-2" d="M481.23,272.47a4.33,4.33,0,0,0-6.11-.27l-8.1,7.42a35,35,0,0,0-11.33,25.75v18.3a4.32,4.32,0,1,0,8.64,0v-18.3A26.32,26.32,0,0,1,472.86,286l8.1-7.42A4.33,4.33,0,0,0,481.23,272.47Z"/><path class="cls-2" d="M407.74,256.32a4.33,4.33,0,0,0-5.93-1.48A14.42,14.42,0,1,1,404,231.5L390.17,239a4.32,4.32,0,1,0,4.11,7.61l22.39-12.09-2.32-3.88a23.22,23.22,0,0,0-40,23.68h0l.09.14,0,.06h0a23.12,23.12,0,0,0,14.16,10.39,23.43,23.43,0,0,0,5.68.7,23.06,23.06,0,0,0,11.9-3.31A4.33,4.33,0,0,0,407.74,256.32Z"/><path class="cls-2" d="M510.83,317.77A14.47,14.47,0,1,1,496,293a14.63,14.63,0,0,1,17,1.48l-13.8,7.44a4.32,4.32,0,0,0,4.11,7.61l22.4-12.09-2.33-3.88a23.23,23.23,0,0,0-40,23.69h0l.11.18v0h0a23.08,23.08,0,0,0,14.16,10.39,23.43,23.43,0,0,0,5.68.7,23.12,23.12,0,0,0,11.91-3.31,4.33,4.33,0,0,0-4.45-7.42Z"/></svg>